<svg width="25" height="31" viewBox="0 0 25 31" fill="none" xmlns="http://www.w3.org/2000/svg">
<path d="M3.50595 3.61151C3.50595 2.78651 3.79945 2.08051 4.38645 1.49351C4.97445 0.905511 5.68095 0.611511 6.50595 0.611511L18.506 0.611511C19.331 0.611511 20.037 0.905511 20.624 1.49351C21.212 2.08051 21.506 2.78651 21.506 3.61151L21.5059 27.6115C21.5059 28.4365 21.2119 29.143 20.6239 29.731C20.037 30.318 19.3309 30.6115 18.5059 30.6115L6.50595 30.6115C5.68095 30.6115 4.97445 30.318 4.38645 29.731C3.79945 29.143 3.50595 28.4365 3.50595 27.6115L3.50595 3.61151ZM8.00595 9.61151C8.00595 10.0365 8.14995 10.393 8.43795 10.681C8.72495 10.968 9.08095 11.1115 9.50595 11.1115L11.006 11.1115L11.006 12.6115C11.006 13.0365 11.15 13.393 11.438 13.681C11.725 13.968 12.081 14.1115 12.506 14.1115C12.931 14.1115 13.2875 13.968 13.5755 13.681C13.8625 13.393 14.006 13.0365 14.006 12.6115L14.006 11.1115L15.506 11.1115C15.931 11.1115 16.2875 10.968 16.5755 10.681C16.8625 10.393 17.006 10.0365 17.006 9.61151C17.006 9.18651 16.8625 8.83001 16.5755 8.54201C16.2875 8.25501 15.931 8.11151 15.506 8.11151L14.006 8.11151L14.006 6.61151C14.006 6.18651 13.8625 5.83001 13.5755 5.54201C13.2875 5.25501 12.931 5.11151 12.506 5.11151C12.081 5.11151 11.725 5.25501 11.438 5.54201C11.15 5.83001 11.006 6.18651 11.006 6.61151L11.006 8.11151L9.50595 8.11151C9.08095 8.11151 8.72495 8.25501 8.43795 8.54201C8.14995 8.83001 8.00595 9.18651 8.00595 9.61151ZM8.00595 19.3615C8.00595 19.9865 8.22495 20.5175 8.66295 20.9545C9.09995 21.3925 9.63095 21.6115 10.256 21.6115C10.881 21.6115 11.412 21.3925 11.849 20.9545C12.287 20.5175 12.506 19.9865 12.506 19.3615C12.506 18.7365 12.287 18.2055 11.849 17.7685C11.412 17.3305 10.881 17.1115 10.256 17.1115C9.63095 17.1115 9.09995 17.3305 8.66295 17.7685C8.22495 18.2055 8.00595 18.7365 8.00595 19.3615ZM12.506 23.8615C12.506 24.4865 12.7249 25.0175 13.163 25.4545C13.6 25.8925 14.131 26.1115 14.756 26.1115C15.381 26.1115 15.912 25.8925 16.349 25.4545C16.787 25.0175 17.006 24.4865 17.006 23.8615C17.006 23.2365 16.787 22.7055 16.349 22.2685C15.912 21.8305 15.381 21.6115 14.756 21.6115C14.131 21.6115 13.6 21.8305 13.163 22.2685C12.7249 22.7055 12.506 23.2365 12.506 23.8615Z" fill="#2B788B"/>
</svg>
